HIERARCHY
ROOT rot
{
	OFFSET 5.900000 0.000000 0.000000 
	CHANNELS 0 Xposition Yposition Zposition
	JOINT right_decoded
	{
		OFFSET 1.100008 0.000000 0.000000 
		CHANNELS 6 Xposition Yposition Zposition Zrotation Yrotation Xrotation
		JOINT joint_1
		{
			OFFSET 1.363060 -1.794630 0.839290 
			CHANNELS 3 Zrotation Yrotation Xrotation
			JOINT joint_2
			{
				OFFSET 2.448110 -6.726130 0.000000 
				CHANNELS 3 Zrotation Yrotation Xrotation
				JOINT joint_3
				{
					OFFSET 2.562200 -7.039590 0.000000 
					CHANNELS 3 Zrotation Yrotation Xrotation
					JOINT joint_4
					{
						OFFSET 0.157640 -0.433110 2.322550 
						CHANNELS 3 Zrotation Yrotation Xrotation
						End Site
						{
							OFFSET 0.000000 0.000000 0.000000 
						}
					}
				}
			}
		}
		JOINT joint_5
		{
			OFFSET -1.305520 -1.794630 0.839290 
			CHANNELS 3 Zrotation Yrotation Xrotation
			JOINT joint_6
			{
				OFFSET -2.542530 -6.985550 0.000000 
				CHANNELS 3 Zrotation Yrotation Xrotation
				JOINT joint_7
				{
					OFFSET -2.568260 -7.056230 0.000000 
					CHANNELS 3 Zrotation Yrotation Xrotation
					JOINT joint_8
					{
						OFFSET -0.164730 -0.452590 2.363150 
						CHANNELS 3 Zrotation Yrotation Xrotation
						End Site
						{
							OFFSET 0.000000 0.000000 0.000000 
						}
					}
				}
			}
		}
		JOINT joint_9
		{
			OFFSET 0.028270 2.035590 -0.193380 
			CHANNELS 3 Zrotation Yrotation Xrotation
			JOINT joint_10
			{
				OFFSET 0.056720 2.048850 -0.042750 
				CHANNELS 3 Zrotation Yrotation Xrotation
				JOINT joint_11
				{
					OFFSET -0.054170 1.746240 0.172020 
					CHANNELS 3 Zrotation Yrotation Xrotation
					JOINT joint_12
					{
						OFFSET 0.104070 1.761360 -0.123970 
						CHANNELS 3 Zrotation Yrotation Xrotation
						End Site
						{
							OFFSET 0.000000 0.000000 0.000000 
						}
					}
				}
				JOINT joint_13
				{
					OFFSET 3.362410 1.200890 -0.311210 
					CHANNELS 3 Zrotation Yrotation Xrotation
					JOINT joint_14
					{
						OFFSET 4.983000 -0.000000 -0.000000 
						CHANNELS 3 Zrotation Yrotation Xrotation
						JOINT joint_15
						{
							OFFSET 3.483560 -0.000000 -0.000000 
							CHANNELS 3 Zrotation Yrotation Xrotation
							JOINT joint_16
							{
								OFFSET 0.715260 -0.000000 -0.000000 
								CHANNELS 3 Zrotation Yrotation Xrotation
								End Site
								{
									OFFSET 0.000000 0.000000 0.000000 
								}
							}
						}
					}
				}
				JOINT joint_17
				{
					OFFSET -3.136600 1.374050 -0.404650 
					CHANNELS 3 Zrotation Yrotation Xrotation
					JOINT joint_18
					{
						OFFSET -5.241900 -0.000000 -0.000000 
						CHANNELS 3 Zrotation Yrotation Xrotation
						JOINT joint_19
						{
							OFFSET -3.444170 -0.000000 -0.000000 
							CHANNELS 3 Zrotation Yrotation Xrotation
							JOINT joint_20
							{
								OFFSET -0.622530 -0.000000 -0.000000 
								CHANNELS 3 Zrotation Yrotation Xrotation
								End Site
								{
									OFFSET 0.000000 0.000000 0.000000 
								}
							}
						}
					}
				}
			}
		}
	}
	JOINT original_left
	{
		OFFSET -13.400002 0.000000 0.000000 
		CHANNELS 6 Xposition Yposition Zposition Zrotation Yrotation Xrotation
		JOINT joint_1
		{
			OFFSET 1.363060 -1.794630 0.839290 
			CHANNELS 3 Zrotation Yrotation Xrotation
			JOINT joint_2
			{
				OFFSET 2.448110 -6.726130 0.000000 
				CHANNELS 3 Zrotation Yrotation Xrotation
				JOINT joint_3
				{
					OFFSET 2.562200 -7.039590 0.000000 
					CHANNELS 3 Zrotation Yrotation Xrotation
					JOINT joint_4
					{
						OFFSET 0.157640 -0.433110 2.322550 
						CHANNELS 3 Zrotation Yrotation Xrotation
						End Site
						{
							OFFSET 0.000000 0.000000 0.000000 
						}
					}
				}
			}
		}
		JOINT joint_5
		{
			OFFSET -1.305520 -1.794630 0.839290 
			CHANNELS 3 Zrotation Yrotation Xrotation
			JOINT joint_6
			{
				OFFSET -2.542530 -6.985550 0.000000 
				CHANNELS 3 Zrotation Yrotation Xrotation
				JOINT joint_7
				{
					OFFSET -2.568260 -7.056230 0.000000 
					CHANNELS 3 Zrotation Yrotation Xrotation
					JOINT joint_8
					{
						OFFSET -0.164730 -0.452590 2.363150 
						CHANNELS 3 Zrotation Yrotation Xrotation
						End Site
						{
							OFFSET 0.000000 0.000000 0.000000 
						}
					}
				}
			}
		}
		JOINT joint_9
		{
			OFFSET 0.028270 2.035590 -0.193380 
			CHANNELS 3 Zrotation Yrotation Xrotation
			JOINT joint_10
			{
				OFFSET 0.056720 2.048850 -0.042750 
				CHANNELS 3 Zrotation Yrotation Xrotation
				JOINT joint_11
				{
					OFFSET -0.054170 1.746240 0.172020 
					CHANNELS 3 Zrotation Yrotation Xrotation
					JOINT joint_12
					{
						OFFSET 0.104070 1.761360 -0.123970 
						CHANNELS 3 Zrotation Yrotation Xrotation
						End Site
						{
							OFFSET 0.000000 0.000000 0.000000 
						}
					}
				}
				JOINT joint_13
				{
					OFFSET 3.362410 1.200890 -0.311210 
					CHANNELS 3 Zrotation Yrotation Xrotation
					JOINT joint_14
					{
						OFFSET 4.983000 -0.000000 -0.000000 
						CHANNELS 3 Zrotation Yrotation Xrotation
						JOINT joint_15
						{
							OFFSET 3.483560 -0.000000 -0.000000 
							CHANNELS 3 Zrotation Yrotation Xrotation
							JOINT joint_16
							{
								OFFSET 0.715260 -0.000000 -0.000000 
								CHANNELS 3 Zrotation Yrotation Xrotation
								End Site
								{
									OFFSET 0.000000 0.000000 0.000000 
								}
							}
						}
					}
				}
				JOINT joint_17
				{
					OFFSET -3.136600 1.374050 -0.404650 
					CHANNELS 3 Zrotation Yrotation Xrotation
					JOINT joint_18
					{
						OFFSET -5.241900 -0.000000 -0.000000 
						CHANNELS 3 Zrotation Yrotation Xrotation
						JOINT joint_19
						{
							OFFSET -3.444170 -0.000000 -0.000000 
							CHANNELS 3 Zrotation Yrotation Xrotation
							JOINT joint_20
							{
								OFFSET -0.622530 -0.000000 -0.000000 
								CHANNELS 3 Zrotation Yrotation Xrotation
								End Site
								{
									OFFSET 0.000000 0.000000 0.000000 
								}
							}
						}
					}
				}
			}
		}
	}
}
MOTION
Frames: 9
Frame Time: 0.005000
1.386107 16.969149 6.217893 3.071908 -12.679033 4.988381 -25.757900 -9.182800 1.507484 -1.267542 5.450845 16.691011 -2.279349 14.381830 -14.889353 0.035437 0.823380 1.810850 22.445240 15.120120 -5.727573 -1.152483 -9.821806 28.275373 1.169972 -12.337686 -13.458528 -0.003077 0.231974 0.074633 3.825582 -0.207332 -1.787050 -0.202073 -0.159304 -3.557743 7.999982 -10.453734 13.495834 1.575817 -4.592144 9.192761 -88.760986 12.139203 2.460040 19.554676 -25.295145 -3.271384 0.504097 1.170410 18.782614 -7.077815 0.029512 0.050100 87.147346 -4.736821 20.375828 -21.404205 29.356714 -4.608818 -0.248121 -0.471008 13.029105 7.150750 0.016252 0.021703 1.386107 16.969149 6.217893 3.605782 -14.852827 4.117599 -33.409809 -9.276292 4.034598 -1.618701 5.221553 15.196357 -1.660056 18.388405 -20.888247 0.051000 1.457700 4.009000 18.960945 17.215824 -8.446139 -0.777497 -10.746755 30.845392 1.449425 -14.300536 -18.218512 -0.042200 1.325400 -3.644700 0.820615 -2.228458 -5.260679 0.590340 -1.073899 -3.484841 5.561829 -11.920118 12.324266 -1.013100 -5.076700 10.916900 -104.120827 12.659347 -9.120438 18.810543 -27.694498 -3.575711 0.068813 4.634086 22.298920 -7.125000 0.000000 0.000000 91.643311 -2.797727 22.085546 -22.081785 32.027916 -3.963009 -0.360825 -3.009316 8.174073 7.125000 0.000000 0.000000 
1.370544 16.967733 6.229320 3.233134 -13.511226 4.645980 -26.320728 -8.825292 2.844924 -1.415021 5.275335 15.798234 -2.541753 15.552023 -15.939152 0.020927 1.060841 2.470286 22.445690 15.729758 -4.969408 -1.343711 -9.813392 28.366564 1.090047 -12.860500 -13.969541 -0.025841 0.252708 0.016075 3.731930 -0.460944 -1.878867 -0.112709 -0.343646 -3.674123 8.044664 -10.733549 13.235027 1.387445 -4.771634 9.300050 -88.335960 11.518961 0.613299 19.205025 -24.818851 -2.984501 0.526485 1.220028 19.557718 -7.106464 0.006926 0.029702 87.353897 -5.139237 20.191931 -21.215904 29.075174 -4.349431 -0.158408 -0.391968 10.192143 7.135214 -0.004382 -0.005933 1.370544 16.967733 6.229320 3.583718 -14.877216 4.103913 -33.379307 -9.330891 4.175762 -1.620391 5.194385 15.153437 -1.698792 18.552387 -20.861061 0.041500 1.315000 3.615800 19.029566 17.108965 -8.426732 -0.783878 -10.751060 30.880953 1.415014 -14.155482 -18.239584 -0.041300 1.311600 -3.606700 0.829592 -2.297196 -5.272506 0.609775 -1.103346 -3.489364 5.599083 -12.012220 12.357793 -0.985800 -5.113400 10.967900 -104.150002 12.676346 -8.841007 18.977377 -27.889929 -3.618627 0.053526 4.633874 22.028498 -7.125000 0.000000 0.000000 91.634186 -2.858919 21.547764 -21.566282 31.543232 -3.830831 -0.397870 -3.024623 8.695850 7.125000 0.000000 0.000000 
1.355198 16.966644 6.239659 3.247980 -12.697549 4.523974 -26.823782 -8.250220 3.516219 -1.417856 5.145101 15.519211 -2.595074 16.424011 -16.225496 0.034382 1.301302 3.096777 22.223391 15.855096 -4.530855 -1.408826 -9.984967 28.827795 1.083377 -13.170235 -13.803657 -0.023478 0.243794 0.149255 3.711827 -0.426098 -1.980666 -0.018735 -0.387407 -3.643635 7.841826 -10.812181 13.068507 1.217744 -4.843913 9.409948 -87.579697 11.276420 -0.615215 18.982698 -24.283457 -2.735455 0.547777 1.231140 20.065371 -7.107926 0.009618 0.038282 87.301964 -4.999272 20.072790 -20.942366 28.947453 -4.218291 -0.172278 -0.349878 10.069159 7.143881 -0.002808 -0.000535 1.355198 16.966644 6.239659 3.593202 -14.895357 4.098287 -33.383640 -9.420787 4.259469 -1.616673 5.195992 15.178070 -1.674811 18.576214 -21.137400 0.052200 1.473900 4.053900 19.062937 17.013590 -8.403508 -0.783372 -10.741472 30.873730 1.396181 -14.063290 -18.226831 -0.041300 1.312000 -3.607600 0.836781 -2.367168 -5.279504 0.682417 -1.128570 -3.495384 5.670779 -12.146371 12.347482 -0.888500 -5.193300 10.977700 -104.210480 12.645936 -8.622885 19.139536 -28.081944 -3.658613 0.051515 4.621105 21.819321 -7.125000 0.000000 0.000000 91.582794 -2.920460 21.028421 -21.047314 31.043823 -3.694833 -0.442853 -3.013413 9.204707 7.125000 0.000000 0.000000 
1.338438 16.967190 6.247060 3.223267 -12.117035 4.523678 -27.329838 -7.562111 4.003946 -1.326767 5.077305 15.336767 -2.611556 16.888023 -16.376755 0.049767 1.462069 3.518006 21.822844 16.074465 -4.372486 -1.538868 -10.040600 29.507374 0.961254 -13.468212 -13.488134 -0.017966 0.190228 0.345730 3.677900 -0.575420 -2.086340 0.038613 -0.513567 -3.621989 7.812618 -10.932684 12.773892 1.014050 -4.924197 9.488026 -86.854561 11.506624 -1.339414 18.966068 -23.957750 -2.546934 0.567340 1.308455 20.540346 -7.104749 0.015676 0.049107 87.218620 -4.668382 19.882795 -20.723654 28.556070 -4.149835 -0.206873 -0.381919 10.568525 7.149680 0.002073 0.009272 1.338438 16.967190 6.247060 3.466759 -14.914486 4.133351 -33.217491 -9.485408 4.319763 -1.610472 5.190559 15.194471 -1.700298 18.689013 -21.156187 0.046200 1.387000 3.814400 19.282293 17.062891 -8.343166 -0.772673 -10.742737 30.861366 1.397236 -14.108174 -18.282009 -0.042900 1.336900 -3.676400 0.845037 -2.390086 -5.288313 0.687686 -1.136757 -3.517621 5.731885 -12.282786 12.339406 -0.831300 -5.258800 10.998200 -104.197319 12.596954 -8.191197 19.372601 -28.347584 -3.725806 0.034360 4.634604 21.396404 -7.125000 0.000000 0.000000 91.600906 -2.975817 20.383175 -20.503016 30.534403 -3.565993 -0.496610 -3.024111 9.775834 7.125000 0.000000 0.000000 
1.322222 16.966972 6.255658 3.426190 -12.036986 4.339140 -27.859039 -6.956451 4.389599 -1.339913 4.993445 15.259978 -2.494266 17.243996 -16.387260 0.067046 1.582976 3.823756 21.339193 15.984681 -4.317213 -1.641651 -10.202628 30.046766 0.945058 -13.618418 -13.140171 -0.008981 0.096543 0.644486 3.701085 -0.554680 -2.128049 0.154364 -0.571791 -3.705361 7.776095 -11.068414 12.446291 0.822103 -5.018804 9.552836 -86.248146 11.944372 -1.970674 19.098688 -23.794491 -2.531396 0.624071 1.264904 20.984825 -7.099903 0.024810 0.060509 87.294693 -4.325063 19.407291 -20.464540 28.234732 -3.999982 -0.157856 -0.433200 11.196089 7.156578 0.009880 0.023321 1.322222 16.966972 6.255658 3.396454 -14.930556 4.149715 -33.123703 -9.564150 4.394064 -1.605065 5.188539 15.216220 -1.708013 18.772326 -21.269800 0.046000 1.384400 3.807300 19.426416 17.053474 -8.290898 -0.765973 -10.737937 30.848780 1.388618 -14.093095 -18.315990 -0.042900 1.337400 -3.677600 0.850923 -2.425299 -5.295609 0.700394 -1.149741 -3.525541 5.793978 -12.416668 12.336465 -0.768100 -5.324900 11.022400 -104.189461 12.550957 -7.805043 19.594641 -28.597935 -3.787743 0.016977 4.640163 21.025457 -7.125000 0.000000 0.000000 91.604889 -3.030326 19.740028 -19.963150 30.023289 -3.439174 -0.552736 -3.022494 10.371969 7.125000 0.000000 0.000000 
1.305897 16.966972 6.264038 3.574015 -12.441715 4.249788 -28.172031 -6.362934 4.613660 -1.370726 4.979200 15.318342 -2.296571 17.378597 -16.306414 0.078277 1.673659 4.060220 20.979521 15.782039 -4.237433 -1.727120 -10.360947 30.567696 0.947750 -13.698862 -12.748702 -0.004883 -0.020972 0.989254 3.585970 -0.727273 -2.005108 0.143310 -0.657327 -3.662245 7.596820 -11.153402 12.188768 0.602087 -5.135190 9.654851 -85.471382 12.470317 -2.063278 19.228468 -23.732002 -2.570047 0.682718 1.325224 21.011194 -7.099868 0.028814 0.064884 87.341675 -4.091757 19.075230 -20.165419 27.980595 -3.817822 -0.164581 -0.432583 11.747185 7.157202 0.013185 0.031755 1.305897 16.966972 6.264038 3.325232 -14.942841 4.166852 -33.028419 -9.645626 4.459112 -1.598073 5.192517 15.252868 -1.711307 18.843014 -21.398865 0.046600 1.393600 3.832500 19.574190 17.048330 -8.230375 -0.757618 -10.729800 30.827305 1.381635 -14.086653 -18.352175 -0.042600 1.332600 -3.664500 0.855147 -2.453410 -5.301611 0.700886 -1.159863 -3.527903 5.858993 -12.550681 12.331172 -0.705100 -5.390000 11.046800 -104.160988 12.494086 -7.369478 19.844381 -28.874985 -3.859101 -0.008011 4.650668 20.606339 -7.125000 0.000000 0.000000 91.617790 -3.085164 19.068802 -19.423306 29.512165 -3.316673 -0.612570 -3.018354 10.996775 7.125000 0.000000 0.000000 
1.289681 16.966864 6.272527 3.707523 -13.025809 4.199310 -28.520000 -5.883170 4.768980 -1.426430 4.997215 15.365075 -2.066632 17.370729 -16.025944 0.082068 1.782228 4.339492 20.634529 15.642557 -4.291447 -1.822887 -10.517204 31.099005 0.986602 -13.754162 -12.245464 -0.010040 -0.137374 1.318077 3.516554 -0.870915 -1.997044 0.245048 -0.739627 -3.742610 7.430099 -11.156652 12.106094 0.415086 -5.237192 9.794429 -84.745354 13.000142 -2.107353 19.458744 -23.697054 -2.525339 0.683217 1.310386 20.952421 -7.102982 0.023126 0.058203 87.311569 -3.869283 18.477230 -19.788406 27.688562 -3.561747 -0.177530 -0.435530 12.334304 7.144010 0.008089 0.028485 1.289681 16.966864 6.272527 3.260391 -14.948604 4.183172 -32.940262 -9.722373 4.537933 -1.594169 5.186165 15.262473 -1.719096 18.921417 -21.500801 0.046400 1.390800 3.824900 19.712301 17.032297 -8.178627 -0.752466 -10.726163 30.820585 1.371632 -14.069179 -18.395824 -0.042200 1.325300 -3.644300 0.858421 -2.480128 -5.306398 0.690586 -1.169888 -3.520712 5.925482 -12.676068 12.325849 -0.645400 -5.448800 11.073600 -104.115593 12.428043 -6.894203 20.123838 -29.180582 -3.939701 -0.040567 4.662886 20.150698 -7.125000 0.000000 0.000000 91.636360 -3.135173 18.374622 -18.882252 28.997778 -3.196762 -0.674700 -3.008783 11.658859 7.125000 0.000000 0.000000 
1.273682 16.966755 6.281234 3.846866 -13.547899 4.067396 -28.899397 -5.415723 4.894535 -1.428173 4.994219 15.440293 -1.764543 17.394361 -15.866251 0.078607 1.871091 4.561382 20.350384 15.345678 -4.460784 -1.891298 -10.645714 31.567726 0.945290 -13.695774 -11.870152 -0.020823 -0.227794 1.605081 3.438807 -1.037237 -1.900920 0.184909 -0.745012 -3.786860 7.258354 -11.244410 12.042101 0.245752 -5.353257 9.944652 -83.964996 13.324731 -2.008037 19.751760 -23.785580 -2.541157 0.682215 1.326037 20.644369 -7.110824 0.011296 0.043640 87.308449 -3.694642 17.802151 -19.402815 27.324793 -3.413304 -0.202561 -0.417616 12.915039 7.123272 -0.002420 0.017450 1.273682 16.966755 6.281234 3.208336 -14.949986 4.196486 -32.867729 -9.800078 4.624225 -1.591500 5.176311 15.261866 -1.726522 18.999849 -21.602776 0.046600 1.393000 3.830800 19.830935 16.989965 -8.136022 -0.749573 -10.723393 30.820515 1.357593 -14.028641 -18.434277 -0.041600 1.315700 -3.617800 0.861280 -2.508541 -5.310165 0.676756 -1.180465 -3.504588 5.993274 -12.787967 12.319887 -0.587100 -5.500400 11.100600 -104.062775 12.356946 -6.396454 20.433434 -29.515722 -4.029439 -0.079108 4.674264 19.679325 -7.125000 0.000000 0.000000 91.652786 -3.184295 17.674391 -18.347092 28.483681 -3.079906 -0.737691 -2.990923 12.347844 7.125000 0.000000 0.000000 
1.257683 16.966536 6.289941 3.804074 -13.972757 4.018672 -29.266897 -4.988868 4.881884 -1.493913 5.051348 15.622331 -1.442900 17.302244 -15.686531 0.060976 1.934720 4.741178 20.154844 15.010906 -4.654927 -1.963699 -10.655286 31.900272 0.907987 -13.688915 -11.455509 -0.044694 -0.326923 1.872915 3.375240 -1.234160 -1.783869 0.258756 -0.811755 -3.947685 7.055275 -11.352526 12.060782 0.031307 -5.483130 10.129371 -83.251778 13.680214 -1.808233 20.121918 -24.035297 -2.653949 0.698882 1.358435 20.095783 -7.131629 -0.013913 0.015497 87.317345 -3.531727 17.192595 -19.171778 26.993307 -3.225061 -0.200757 -0.438541 13.435651 7.088196 -0.024595 -0.008962 1.257683 16.966536 6.289941 3.165406 -14.945619 4.208039 -32.805283 -9.878116 4.715364 -1.590305 5.163035 15.250792 -1.737387 19.084799 -21.685402 0.045900 1.382900 3.803100 19.934860 16.926756 -8.103549 -0.748596 -10.722253 30.827251 1.341368 -13.974202 -18.466528 -0.041200 1.309500 -3.600900 0.865018 -2.541736 -5.314004 0.666359 -1.192851 -3.486795 6.060373 -12.882537 12.313117 -0.531300 -5.543500 11.126800 -104.010124 12.283092 -5.889216 20.765167 -29.871809 -4.125665 -0.118321 4.680862 19.208048 -7.125000 0.000000 0.000000 91.662247 -3.234445 16.974087 -17.821367 27.970587 -2.966305 -0.799274 -2.966399 13.061941 7.125000 0.000000 0.000000 
